<?xml version="1.0" standalone="no"?>
<!DOCTYPE svg PUBLIC "-//W3C//DTD SVG 20010904//EN"
 "http://www.w3.org/TR/2001/REC-SVG-20010904/DTD/svg10.dtd">
<svg version="1.0" xmlns="http://www.w3.org/2000/svg"
 width="662.000000pt" height="189.000000pt" viewBox="0 0 662.000000 189.000000"
 preserveAspectRatio="xMidYMid meet">

<g transform="translate(0.000000,189.000000) scale(0.100000,-0.100000)"
fill="#000000" stroke="none">
<path d="M4046 1808 c4 -7 49 -71 99 -143 192 -270 496 -718 493 -724 -3 -8
-198 -292 -265 -386 -19 -27 -80 -115 -136 -195 -55 -80 -122 -175 -149 -213
l-48 -67 313 0 314 0 135 193 c74 105 208 299 298 430 90 130 166 237 169 237
3 0 73 -98 155 -218 82 -119 217 -315 300 -434 l151 -218 313 0 313 0 -48 68
c-26 37 -79 112 -118 167 -120 169 -437 633 -437 640 0 7 307 457 437 640 39
55 92 130 118 168 l48 67 -313 0 -313 0 -110 -157 c-60 -87 -194 -282 -298
-433 -103 -151 -192 -275 -197 -275 -5 0 -106 140 -223 310 -117 171 -252 364
-298 430 l-85 120 -313 3 c-249 2 -311 0 -305 -10z"/>
<path d="M1074 1656 c-55 -80 -167 -246 -251 -369 -84 -122 -204 -298 -267
-392 -63 -93 -212 -314 -330 -490 l-216 -320 312 -3 c241 -2 315 1 324 10 7 7
95 139 196 293 300 457 332 504 339 499 9 -5 142 -197 467 -674 36 -52 72
-103 81 -113 20 -21 7 -37 166 198 144 212 396 578 405 589 5 4 63 -76 131
-179 l123 -187 20 28 c12 15 65 93 120 173 54 81 116 171 138 203 l40 56 -226
334 c-274 405 -303 448 -326 472 -17 18 -19 16 -57 -40 -21 -33 -146 -218
-278 -413 l-238 -354 -25 29 c-14 16 -135 193 -269 394 -135 201 -253 373
-263 384 -17 17 -21 13 -116 -128z"/>
<path d="M3372 1648 c-56 -84 -146 -218 -200 -298 -207 -305 -319 -471 -427
-630 -202 -298 -321 -474 -373 -549 -29 -41 -52 -78 -52 -83 0 -4 142 -8 315
-8 l315 0 32 52 c18 29 85 132 149 228 64 96 169 255 234 353 l117 179 64 -94
c35 -51 152 -225 259 -386 107 -162 200 -292 207 -290 6 2 31 32 55 66 61 87
131 189 166 242 17 25 43 62 59 82 l29 37 -417 625 c-230 344 -420 626 -424
626 -3 0 -52 -69 -108 -152z"/>
<path d="M3120 266 c-60 -91 -110 -170 -110 -176 0 -6 81 -10 234 -10 l234 0
-114 169 c-63 94 -118 172 -124 176 -5 3 -59 -69 -120 -159z"/>
</g>
</svg>
